# xmcd
#
# Track frame offsets: 
#        150
#        14652
#        34952
#        43197
#        56930
#        83535
#        98210
#        113460
#        130367
#        148235
#        160425
#        176010
#        194337
#
# Disc length: 2874 seconds
#
# Revision: 0
# Processed by: cddbd v1.5.2PL0 Copyright (c) Steve Scherf et al.
# Submitted via: ExactAudioCopy v0.99pb3
#
DISCID=bc0b380d
DTITLE=The Flying Burrito Brothers - Back To The Sweetheart Of The Rod
DTITLE=eo
DYEAR=2000
DGENRE=Country
TTITLE0=Back to the Sweetheart of the Rodeo
TTITLE1=Burning Embers
TTITLE2=Red Shoes
TTITLE3=Shoot for the Moon
TTITLE4=Moonlight Rider
TTITLE5=Carry Me
TTITLE6=Baby Won't You Let Me Be the One
TTITLE7=Gold Guitar
TTITLE8=True, True Love
TTITLE9=I'm Impressed
TTITLE10=Let's Do Something Crazy
TTITLE11=You're a Fool to Love
TTITLE12=Mean Streets
EXTD=
EXTT0=
EXTT1=
EXTT2=
EXTT3=
EXTT4=
EXTT5=
EXTT6=
EXTT7=
EXTT8=
EXTT9=
EXTT10=
EXTT11=
EXTT12=
PLAYORDER=
